<svg width="18" height="24" viewBox="0 0 18 24" fill="none" xmlns="http://www.w3.org/2000/svg">
<path d="M16.4539 1V23H1L1 3.72581L2.36787 2.36379L3.73752 1L16.4539 1Z" stroke="#f9fafb" stroke-width="2"/>
<g clip-path="url(#clip0_240_26)">
<path d="M5.72755 15.1534C5.12859 15.1534 4.61427 15.0219 4.18458 14.7589C3.75749 14.4959 3.42807 14.1326 3.1963 13.6691C2.96713 13.2029 2.85255 12.6665 2.85255 12.0597C2.85255 11.4503 2.96973 10.9126 3.20411 10.4464C3.43848 9.97766 3.76921 9.61308 4.1963 9.35266C4.62598 9.08964 5.1338 8.95813 5.71973 8.95813C6.20671 8.95813 6.6377 9.04797 7.0127 9.22766C7.39031 9.40474 7.69109 9.65605 7.91505 9.98157C8.139 10.3045 8.26661 10.6821 8.29786 11.1144H6.9463C6.89161 10.8253 6.7614 10.5844 6.55567 10.3917C6.35255 10.1964 6.08041 10.0988 5.73927 10.0988C5.4502 10.0988 5.1963 10.1769 4.97755 10.3331C4.7588 10.4868 4.58822 10.7081 4.46583 10.9972C4.34604 11.2863 4.28614 11.6326 4.28614 12.0363C4.28614 12.4451 4.34604 12.7967 4.46583 13.0909C4.58562 13.3826 4.75359 13.6079 4.96973 13.7667C5.18848 13.923 5.44499 14.0011 5.73927 14.0011C5.9476 14.0011 6.1338 13.962 6.29786 13.8839C6.46453 13.8032 6.60385 13.6873 6.71583 13.5363C6.82781 13.3852 6.90463 13.2016 6.9463 12.9855H8.29786C8.264 13.41 8.139 13.7863 7.92286 14.1144C7.70671 14.4399 7.41244 14.6951 7.04005 14.88C6.66765 15.0623 6.23015 15.1534 5.72755 15.1534ZM14.8184 9.03625L12.6816 15.0363H11.1191L8.98243 9.03625H10.4902L11.8691 13.4933H11.9316L13.3145 9.03625H14.8184Z" fill="#f9fafb"/>
</g>
<defs>
<clipPath id="clip0_240_26">
<rect width="14.5449" height="15.2727" fill="white" transform="translate(2.18164 1.45447)"/>
</clipPath>
</defs>
</svg>
