<svg width="24" height="24" viewBox="0 0 50 50" fill="none" xmlns="http://www.w3.org/2000/svg">
<g clip-path="url(#clip0_237_2)">
<path fill-rule="evenodd" clip-rule="evenodd" d="M50 47.7273H38.9493V31.7481C38.9493 27.5656 37.2207 24.7104 33.4196 24.7104C30.5121 24.7104 28.8952 26.6372 28.1426 28.4941C27.8604 29.1607 27.9045 30.0891 27.9045 31.0176V47.7273H16.9567C16.9567 47.7273 17.0979 19.4219 16.9567 16.8489H27.9045V21.695C28.5513 19.5761 32.0496 16.552 37.6323 16.552C44.5584 16.552 50 20.9936 50 30.5577V47.7273ZM5.88545 12.9866H5.81492C2.28717 12.9866 0 10.6261 0 7.63398C0 4.58369 2.35477 2.27271 5.95308 2.27271C9.54844 2.27271 11.7592 4.5779 11.8297 7.62528C11.8297 10.6174 9.54844 12.9866 5.88545 12.9866ZM1.26114 16.8489H11.0066V47.7273H1.26114V16.8489Z" fill="#f9fafb"/>
</g>
<defs>
<clipPath id="clip0_237_2">
<rect width="50" height="50" fill="white"/>
</clipPath>
</defs>
</svg>
