<svg width="40" height="23" viewBox="0 0 73 42" fill="none" xmlns="http://www.w3.org/2000/svg">
<path d="M50.131 20.4544L56.9446 28.1818L67.2612 32.3755L70.8472 34.4361L50.9605 17.2768L50.131 20.4544ZM50.131 20.4544L50.7198 17.0661L50.6936 17.127L50.8378 16.8886L54.7725 15.8456L54.7779 11.8064L49.9399 9.60652L50.131 20.4544ZM67.7695 7.95263L67.989 7.65196L67.6306 5.19853L63.5796 2.21145M67.7695 7.95263L63.5796 2.21145M67.7695 7.95263L67.2727 8.63261L66.2435 7.06725L66.2035 7.05036L59.2388 4.10059L63.5796 2.21145M14.8021 26.4264L24.2419 24.6152L24.244 24.615L37.1016 22.4598L30.9518 18.9227M14.8021 26.4264L19.0707 23.5051L29.7518 19.2454L30.9518 18.9227M14.8021 26.4264L11.4317 26.9272L6.77855 28.7115L9.2801 30.5949L25.5832 33.7639L25.4293 33.5465L14.8021 26.4264ZM30.9518 18.9227L37.556 21.5528L48.061 25.3346L56.4564 27.6758L49.9372 20.7806L33.864 18.741L30.9518 18.9227ZM59.3322 8.24776L58.122 3.9426L58.8323 3.8066L65.9993 6.89532L67.1871 8.52017L65.9925 10.1546L65.1179 10.7061L59.3322 8.24776ZM50.3506 9.21165L57.852 4.06761L58.8706 8.29447L55.0212 11.3108L50.3506 9.21165ZM37.1743 22.271L31.0772 18.8816L37.2387 21.3094L37.2397 21.3098L37.2408 21.3102L47.9682 25.3008L37.1743 22.271ZM9.77114 30.9646L25.7408 34.1313V34.1805L24.799 39.152L24.2673 40.402L23.2289 40.1377L9.84315 31.1197L9.77114 30.9646ZM26.2009 33.9295L25.3137 24.5837L25.6655 24.4993L25.5243 24.9053L26.5281 25.2898L42.926 40.9941H41.4939L26.2009 33.9295ZM25.7185 33.7306L15.3283 26.3466L25.028 24.6375L25.7185 33.7306ZM26.1741 34.3975L41.4211 41L24.9431 40.4864L25.294 39.2716L25.2988 39.2595L26.1741 34.3975ZM9.61322 31.3007L10.0526 32.2475L3.97222 28.4208L4.05657 28.259H6.08914L9.45959 30.9772L9.55957 31.2646L9.59815 31.2906L9.61322 31.3007ZM67.9968 8.21656L67.9953 10.6366L65.2118 11.0616L66.2241 10.528L66.2472 10.5135L66.2629 10.4922L67.8832 8.27384L67.9968 8.21656ZM70.18 15.3928L65.4759 11.1433L66.7063 11.0616L67.9953 10.7923L71.3284 15.2577L70.18 15.3928ZM62.7484 1.91432L58.8478 3.97275L58.0942 4.11464L57.7893 1.25093L59.7909 1L62.7484 1.91432ZM57.1869 1.66593L57.8243 4.21531L49.8341 9.2897L57.1869 1.66593ZM60.9767 35.1926L57.6371 28.7566L67.3473 32.377L71.4399 34.8891V35.1926H60.9767ZM60.6113 35.1045L25.9042 24.8334L26.0016 24.5948L37.4914 22.669L47.9687 25.5908L47.974 25.5923L56.8576 28.0696L57.0537 28.2485L60.6113 35.1045ZM60.9682 35.4629H71.4399V36.0828L58.492 40.0634L60.9682 35.4629ZM57.5409 40.314L44.0014 40.9941L60.5538 35.5876L57.5409 40.314ZM26.244 25.2173L60.4431 35.338L44.1819 40.9941H43.3597L26.244 25.2173ZM62.9764 28.2305L51.0883 17.211L55.0486 16.3658L72.3333 30.4306L71.4399 34.7105L62.9764 28.2305ZM9.92097 27.4645L6.53203 28.5142L6.19477 28.1968H4.00321L1.25829 26.4745L9.92097 27.4645ZM10.0887 32.5845L12.1002 38.264H11.8059L8.23285 35.5738L1 26.7083L10.0887 32.5845ZM10.26 32.2137L10.2559 32.2018L9.64967 31.1748L23.2313 40.1389L12.4086 38.2803L10.26 32.2137Z" stroke="#3138BD"/>
</svg>
